<svg xmlns="http://www.w3.org/2000/svg" xmlns:xlink="http://www.w3.org/1999/xlink" viewBox="0 0 520 420"><defs><style>.cls-1{isolation:isolate;}.cls-16,.cls-2{fill:none;stroke-miterlimit:10;}.cls-2{stroke:#000;stroke-width:1.07px;stroke-dasharray:5.37 5.37 5.37 5.37 5.37 5.37;}.cls-3{fill:#3d3d3d;}.cls-4{fill:#5db6f9;}.cls-5{fill:#53d4f0;}.cls-6{fill:#f8b6af;}.cls-7{fill:#fcc464;}.cls-8{fill:#ec9b80;}.cls-9{fill:#372e7c;}.cls-10{fill:#40327a;}.cls-11,.cls-15{fill:#cd4a2f;}.cls-11,.cls-14{opacity:0.25;mix-blend-mode:multiply;}.cls-12{fill:#a6a2d0;}.cls-13{fill:#7873b4;}.cls-16{stroke:#a6a2d0;stroke-width:1.32px;opacity:0.45;}.cls-17{fill:#493d97;}.cls-18{fill:#f1718a;}.cls-19{fill:#fff;}.cls-20{fill:#909cff;}.cls-21{fill:url(#linear-gradient);}</style><linearGradient id="linear-gradient" x1="193.56" y1="83.13" x2="175.37" y2="132.31" gradientUnits="userSpaceOnUse"><stop offset="0" stop-color="#636ff0"/><stop offset="1" stop-color="#5352ee"/></linearGradient></defs><title>header landing</title><g class="cls-1"><g id="Layer_1" data-name="Layer 1"><polyline class="cls-2" points="185.74 161.33 185.74 269.16 306.26 269.16"/><rect class="cls-3" x="32" y="32.84" width="229.48" height="153.61"/><rect class="cls-4" x="44.93" y="41.49" width="203.63" height="136.31"/><rect class="cls-5" x="59.98" y="60.23" width="60.67" height="9.58" transform="translate(180.63 130.03) rotate(180)"/><rect class="cls-5" x="59.98" y="74.53" width="60.67" height="9.58" transform="translate(180.63 158.64) rotate(180)"/><rect class="cls-5" x="59.98" y="88.84" width="60.67" height="9.58" transform="translate(180.63 187.25) rotate(180)"/><rect class="cls-5" x="59.98" y="102.78" width="60.67" height="9.58" transform="translate(180.63 215.13) rotate(180)"/><rect class="cls-5" x="59.98" y="116.71" width="60.67" height="9.58" transform="translate(180.63 243) rotate(180)"/><rect class="cls-5" x="59.98" y="142.04" width="100.07" height="9.57" transform="translate(220.03 293.65) rotate(180)"/><rect class="cls-5" x="59.98" y="157.12" width="170.79" height="9.58" transform="translate(290.75 323.82) rotate(180)"/><rect class="cls-5" x="167.91" y="142.88" width="62.86" height="7.89" transform="translate(398.68 293.65) rotate(180)"/><path class="cls-4" d="M493,229.76c0,69.25-2,82.81-19.36,98.33-6.81,6.08-19.34,18.7-55.48,25a272.32,272.32,0,0,1-39.41,3.6,130.12,130.12,0,0,1-17.53-.66,90.82,90.82,0,0,1-12.4-2.16c-39.72-9.95-42.68-44-25.31-72.62a165.31,165.31,0,0,1,15.37-21.05c8.51-10,17.63-18.95,25.89-27.27,7.61-7.66,14.5-14.83,19.5-21.9a54.52,54.52,0,0,0,5.24-8.92c.32-.71.65-1.41,1-2.1,1.07-2.25,2.17-4.41,3.28-6.48,2.09-3.89,4.21-7.44,6.26-10.62,1.64-2.54,3.22-4.84,4.7-6.88a113.6,113.6,0,0,1,8.84-11s.47-.22,1.34-.58l1.72-.68.86-.33.95-.34.95-.33,1.21-.4.75-.24.45-.15L422,162a78.68,78.68,0,0,1,19.93-3.5C464.72,157.65,493,168.91,493,229.76Z"/><path class="cls-6" d="M311.09,212s-6.26-4.41-6.48-6.27-4.59-9.37-6-10.87-8.73-4-10.3-4.26-10.55.54-9.43,1.76,6.93.78,8.05,1.45l1.12.67s-1.12,1.52-.67,2.44-1.92,2.33-1,3.89-.36,1.46.44,3.09c1.32,2.7,4.71,4.2,5.6,3.47.67,1.59,3.24,4.85,5.64,4.63s8.25,5.25,8.25,5.25"/><path class="cls-6" d="M406.55,180.56c.21,4.21-.09,11.53,1.11,12.62s5.09.91,5.09.91-13.89,17.57-15.13,16.6-17.67-14.35-14-15,7.3-.55,7.2-2.46-.21-3.82-.31-5.73"/><path class="cls-7" d="M422.39,274.37s-27.1,3.08-33.34,3.21-5.93-3.13-5.93-3.13c-.32-6.87-1.49-23.06-2.78-28.54-1.2-5.12-1.74-7-2.79-11.88-2.33-10.82-2.22-12.88-4.69-26.23l16.19-13s1.67,5,8.46,5.06c9.07.12,11.89-6.24,11.89-6.24l22.08,14.67,2.07,35.66-2.64,29.37"/><path class="cls-6" d="M406.85,176.76a47.12,47.12,0,0,1-1.91,6.23c-1.43,3.72-3.54,5-7.48,5.15l-8.3.19c-2.12,0-4.76.13-6.48-1.36s-1.73-4-2.11-6c-.48-2.62-.88-5.26-1.18-7.9a116.38,116.38,0,0,1-.73-15.62,10.89,10.89,0,0,1,.19-2.13,1.58,1.58,0,0,1,.35-.79,1.83,1.83,0,0,1,1-.38,84.91,84.91,0,0,1,15.69-1c3.7.11,7.63.54,10.56,2.81s4.35,6,5.61,9.5c.21.56.36,1.32-.13,1.66"/><path class="cls-8" d="M346.06,371.05a58.62,58.62,0,0,0,1.62,7.23c.71,1.85,6.76.15,7.16-1s-1.9-10-1.9-10"/><path class="cls-9" d="M357,378.76c.52,2,1.18,5.8,1.18,5.8l-6.05,2.63-1-.93a11.27,11.27,0,0,1-3.35,2.68,25.28,25.28,0,0,1-5.85,1.62c-5.28.57-9.16-.43-9.47-1.16-1.31-3,5.69-3.87,7.08-4.24a9.28,9.28,0,0,0,6.63-6.64c.31-1.6-.09-1.89.81-1.84a2.13,2.13,0,0,1,1.51.71,3.81,3.81,0,0,0,4.29,1,4.5,4.5,0,0,0,2.14-1.78A2.64,2.64,0,0,1,357,378.76Z"/><path class="cls-10" d="M372.77,300.59a102.28,102.28,0,0,1-30.85.73c1.33,3.83,4.6,8.73,5.85,14.12,4.12,17.8,5.55,41.71,6.59,56.5,0,0-2,3.79-8.31.9-9.46-23.37-26-70.74-25.83-81,.19-13.08,32.85-16.24,56.78-19.47"/><path class="cls-9" d="M414.49,274.39c7.52,5.5-41.72,26.2-41.72,26.2a82.42,82.42,0,0,1-16.14,1.54,12.25,12.25,0,0,1-1.2-3.05c-.29-1.43-.13-2.92-.38-4.36a10.13,10.13,0,0,0-4.92-6.63,22.2,22.2,0,0,0-8.05-2.6c-6.65-1.08-18.28-.33-18.28-.33,14.8-10.9,45.08-12.33,59.18-13.23C385.69,276.38,413.41,273.61,414.49,274.39Z"/><path class="cls-8" d="M361.67,383.49a58.47,58.47,0,0,0,.34,7.4c.38,1.94,6.63,1.32,7.23.22s-.15-10.14-.15-10.14"/><path class="cls-9" d="M371.05,393c.17,2,.16,5.92.16,5.92l-6.41,1.54-.81-1.09a11.28,11.28,0,0,1-3.77,2.06,25.52,25.52,0,0,1-6,.58c-5.3-.35-8.95-2-9.13-2.78-.76-3.24,6.28-2.83,7.71-2.95a9.27,9.27,0,0,0,7.68-5.39c.58-1.53.24-1.87,1.11-1.67a2.16,2.16,0,0,1,1.37,1,3.81,3.81,0,0,0,4.06,1.73,4.6,4.6,0,0,0,2.42-1.39A2.64,2.64,0,0,1,371.05,393Z"/><path class="cls-10" d="M430.91,273.31a305.62,305.62,0,0,1-33.36,1.06c-4.26,0-36.48,6.05-39.57,11.51-5.07,9,3.31,61.47,2.54,99.06,0,0,3.86,3.22,10.69.19,1.7-18.46,12.61-62,5.08-82.35,17.77,2.36,32.1,4.7,48.25-.65,3.78-1.25,6.61-3.92,8.31-8.81S433.66,277.69,430.91,273.31Z"/><path class="cls-7" d="M389.05,194.79s-3.88.21-4.63.27a35.76,35.76,0,0,0-9.57,1.81c-4.39,1.63-7.49,5.71-11.07,8.91s-21.27,20.07-24.6,20.69-32.53-19.38-32.53-19.38l-7.13,7.13s31.69,29.28,41.14,29.33c4.58,0,29.88-13.29,38-18.47Z"/><path class="cls-11" d="M340.73,237.92c-6.51.37-36.36-22.43-39.83-25.09l-1.38,1.39s31.69,29.28,41.14,29.33c3.82,0,22-9.22,32.66-15.3l2.75-1.6-1.65-9.84S347.65,237.53,340.73,237.92Z"/><path class="cls-12" d="M310.33,279.16h72.53l-13-42.4a5.58,5.58,0,0,0-5.33-3.94H301a3.61,3.61,0,0,0-3.45,4.68Z"/><path class="cls-13" d="M309.41,279.16h71.45l-13-42.4a5.58,5.58,0,0,0-5.33-3.94H299a3.62,3.62,0,0,0-3.46,4.68L308,278.12A1.47,1.47,0,0,0,309.41,279.16Z"/><g class="cls-14"><path class="cls-15" d="M421,215.22c-3.61,16.33-4.25,29.1-5.27,40.77-12.67,4.92-17.83,12.25-30.23,17.77,0,0-9.8-1.63-10.83,2.07-.59,2.13,11.47,3.82,11.47,3.82,11.49.06,41.81-8.34,43.86-8.91s8-39.09,8.26-60c0-3-.07-6.19-1.92-8.51a11.08,11.08,0,0,0-3.75-2.76c-8.08-4.14-14.07-5.27-23.14-5.85"/></g><path class="cls-6" d="M387.16,276.29c-1.37-1.72-3.85-2-6-1.91a43.81,43.81,0,0,0-4.85.38c-.73.1-1.57.27-1.65,1.07s3.56,0,5.46.55a95.5,95.5,0,0,1-11.22.3,3.31,3.31,0,0,0-1.29.13,1.07,1.07,0,0,0-.72,1,1.34,1.34,0,0,0,.51.85,7.54,7.54,0,0,0,3.86,1.55c5.72,1,11.73.83,17-1.5"/><path class="cls-7" d="M420.16,214.92c-.29,17.45-1.53,25.43-1.19,42.88-8.76,1.87-20.89,11.79-33.29,17.31a6.54,6.54,0,0,0,.41,4.54c.94.35,41.84-9.61,45.09-12.6,2.92-2.7,6.79-35.4,7-56.32,0-3-.07-6.19-1.92-8.51a11.08,11.08,0,0,0-3.75-2.76c-8.08-4.14-14.07-5.27-23.14-5.85"/><path class="cls-16" d="M346.29,256.72c.26,3.72-4.14,6.74-9.82,6.74s-10.49-3-10.75-6.74,4.13-6.73,9.81-6.73S346,253,346.29,256.72Z"/><ellipse class="cls-12" cx="336" cy="256.72" rx="3.74" ry="6.54" transform="translate(66.38 582.47) rotate(-87.77)"/><path class="cls-17" d="M394.08,165.6c-.14-.65-1.59-.78-3-.6s-5.34.67-6.14,1.29-.75,1.07-1.17,1.12-.45-.39-1.38-.8-3.16-.12-4.62.06-2.83.51-2.8,1.17.28,1.83.58,2,.29.16,1.44,2.79a2.77,2.77,0,0,0,3.5,1.9c2.4-.52,2.55-3.25,2.73-4.39s.36-1.3.72-1.35.62.07,1.08,1.13.79,3.5,3.25,3.63c3.21.18,4.6-.92,5-3,.61-2.79.47-2.8.71-3.05a15,15,0,0,1,2.4.2l-.05-.83A18.23,18.23,0,0,1,394.08,165.6Zm-11.67,5.62a2.79,2.79,0,0,1-2.36,2.93c-1.48.18-2.15-.6-2.95-2.49a4.86,4.86,0,0,1-.47-3.4c.25-.45,1-.43,2.87-.55s2.44-.15,2.73.65A9.67,9.67,0,0,1,382.41,171.22Zm10.47-1.54c-.3,2-1,3-3.06,3.24-2.86.34-3.41-.79-3.83-2.15a9.9,9.9,0,0,1-.54-2.81c.09-.86.69-1,2.49-1.31s4.21-.76,4.56-.38S393.15,167.92,392.88,169.68Z"/><path class="cls-10" d="M413.47,161.14a32.39,32.39,0,0,0-.8-4.3,13.7,13.7,0,0,0-6.7-8.78,21.4,21.4,0,0,0-15.17-1.51c-2.77.77-3.8,2.23-5.23,2.19a15.48,15.48,0,0,1-3.88-1.28c-10.85-3.89-9,6.72-7.88,9.64.52,1.29,3,2.23,3.3,2.77s.29,3.16.5,4.32a2.29,2.29,0,0,0,1.35,1.59s.06-3.42.12-3.88a4.27,4.27,0,0,1,1.6-3.2,10.12,10.12,0,0,1,3.9-1.1c1.34-.23,7.57,1,8,1.32,2,1.74,2.54,5.71,3.11,8,.27,1.09.54,1.82,1,1.8.33-3.21,1.45-3.29,3.37-2.19,1,.59,1.6,2.62,1.63,4.34,0,2-1.1,4.29-3.24,4.74-.76.17,1.55,4.55,2.62,5.64a5.9,5.9,0,0,0,1.13,1,5.43,5.43,0,0,0,1.31.49l1.55.42a4,4,0,0,0,2.13.18c1.14-.32,1.74-1.54,2.26-2.61.85-1.76,1.82-3.46,2.52-5.29A31.57,31.57,0,0,0,413.47,161.14Z"/><path class="cls-18" d="M340.43,174.41a21.25,21.25,0,1,0-4.84,4.45l8.24,4.4Z"/><path class="cls-19" d="M314.83,155.34a5.2,5.2,0,0,1,7.35.08l1.32,1.35,1.36-1.34a5.19,5.19,0,1,1,7.29,7.4l-5,5,0,0a5.19,5.19,0,0,1-7.35-.07l-5-5.08A5.2,5.2,0,0,1,314.83,155.34Z"/><rect class="cls-19" x="129.81" y="58.6" width="101.19" height="66.64" rx="3.83"/><rect class="cls-20" x="150.92" y="45.15" width="58.98" height="93.53" transform="translate(272.32 -88.49) rotate(90)"/><polygon class="cls-21" points="205.27 90.33 194.31 105.87 189.33 112.94 178.93 98.18 162.56 74.95 133.64 115.98 133.64 121.41 227.17 121.41 205.27 90.33"/><path class="cls-19" d="M196.48,79.44a7.15,7.15,0,1,1-7.15-7.15A7.15,7.15,0,0,1,196.48,79.44Z"/></g></g></svg>