<svg xmlns="http://www.w3.org/2000/svg" width="111.091" height="23.998" viewBox="0 0 111.091 23.998"><defs><style>.a{fill:#3d3d3d;}</style></defs><g transform="translate(-500.126 -371.535)"><g transform="translate(373.5 272.401)"><path class="a" d="M211.673,115.074l-2.121,15.145a.98.98,0,0,1-.219.572.993.993,0,0,1-.623.135h-3.433a.861.861,0,0,1-.555-.152c-.123-.1-.163-.286-.118-.555l2.895-20.531a3.076,3.076,0,0,1,.706-1.833,2.456,2.456,0,0,1,1.751-.522h1.38a5.443,5.443,0,0,1,.825.051,1.289,1.289,0,0,1,.556.219,1.607,1.607,0,0,1,.421.472q.184.3.42.774l4.275,9.66,2.053,4.678h.168l2.12-15.146a.949.949,0,0,1,.235-.555.983.983,0,0,1,.64-.152h3.433q.739,0,.64.707L224.228,128.6a3.65,3.65,0,0,1-.656,1.7,2.133,2.133,0,0,1-1.767.622h-1.38a5.489,5.489,0,0,1-.824-.051,1.4,1.4,0,0,1-.572-.219,1.531,1.531,0,0,1-.438-.454,5.152,5.152,0,0,1-.388-.758l-4.342-9.693-2.019-4.678Z" transform="translate(-77.961 -8.199)"/><path class="a" d="M327.168,140.019a5.962,5.962,0,0,1-.522.925,2.039,2.039,0,0,1-.538.539,1.782,1.782,0,0,1-.64.253,4.216,4.216,0,0,1-.791.067h-2.457a1.941,1.941,0,0,1-1.212-.337,2.467,2.467,0,0,1-.673-1.447l-3.164-15.448q-.067-.37.051-.488a.59.59,0,0,1,.42-.118h3.533a1.2,1.2,0,0,1,.656.118.8.8,0,0,1,.219.488l1.111,6.9.741,5.688h.168l2.289-5.721,2.962-6.833a1.376,1.376,0,0,1,.337-.5,1.16,1.16,0,0,1,.673-.135h3.836q.539,0,.27.539Z" transform="translate(-150.432 -18.907)"/><path class="a" d="M369.262,141.215a7.11,7.11,0,0,1-5.032-1.7,6.709,6.709,0,0,1-1.834-5.166,16.687,16.687,0,0,1,.706-5.116,10.084,10.084,0,0,1,1.969-3.619,8.2,8.2,0,0,1,2.962-2.153,9.4,9.4,0,0,1,3.719-.724,7.609,7.609,0,0,1,4.981,1.363,4.569,4.569,0,0,1,1.616,3.685,5.537,5.537,0,0,1-2,4.695q-2,1.532-6.31,1.532-.64,0-1.3-.033t-1.4-.135a2.845,2.845,0,0,0,.4,2.406,3.809,3.809,0,0,0,2.525.657,7.314,7.314,0,0,0,.925-.067q.521-.067,1.078-.185t1.094-.27q.538-.151.976-.319a1,1,0,0,1,.538-.084.613.613,0,0,1,.27.319l1.043,2.659q.235.472-.37.808a7.168,7.168,0,0,1-1.532.673,18.02,18.02,0,0,1-1.751.454,13.992,13.992,0,0,1-1.75.252Q369.935,141.215,369.262,141.215Zm2.221-14.439a3.613,3.613,0,0,0-2.273.832,4.336,4.336,0,0,0-1.4,2.8q.37.034.74.051c.247.011.482.017.707.017a15.706,15.706,0,0,0,2.154-.119,4.215,4.215,0,0,0,1.33-.373,1.544,1.544,0,0,0,.69-.645,2.008,2.008,0,0,0,.2-.935,1.626,1.626,0,0,0-.454-1.138A2.285,2.285,0,0,0,371.483,126.776Z" transform="translate(-179.565 -18.117)"/><path class="a" d="M415.245,130.132a.568.568,0,0,1-.1.454,1.045,1.045,0,0,1-.505.253,9.721,9.721,0,0,1-1.867.371q-.993.1-1.8.1a6.734,6.734,0,0,1-1.9-.236,2.421,2.421,0,0,1-1.245-.808,2.958,2.958,0,0,1-.572-1.5,9,9,0,0,1,.084-2.339l2.639-18.437c.044-.314.129-.5.252-.555a1.4,1.4,0,0,1,.555-.084h3.266a.959.959,0,0,1,.538.118c.112.079.146.241.1.488l-2.471,17.664a2.119,2.119,0,0,0,.067,1.145q.168.3.909.3c.18,0,.376-.005.59-.017s.409-.028.589-.051a.35.35,0,0,1,.5.4Z" transform="translate(-208.417 -8.212)"/><path class="a" d="M482.4,125.108A3.133,3.133,0,0,1,482.87,124a2.1,2.1,0,0,1,.875-.707,5.626,5.626,0,0,1,1.5-.387q1.884-.2,3.651-.253t3.45.017a1.126,1.126,0,0,1,.706.152q.168.152.068.69l-.538,3c-.046.337-.146.528-.3.572a1.637,1.637,0,0,1-.673,0q-1.414-.2-2.491-.269t-2.254-.135l-1.919,13.4a.828.828,0,0,1-.252.589,1.22,1.22,0,0,1-.623.118h-3.13a1.046,1.046,0,0,1-.555-.118q-.185-.118-.118-.589l1.851-13.4Q482.247,125.764,482.4,125.108Z" transform="translate(-255.44 -18.047)"/><path class="a" d="M446.595,132.142q.483-3.531,1.049-7.325a1.536,1.536,0,0,0,0-.639c-.046-.18-.258-.326-.64-.438a26.928,26.928,0,0,0-3.786-.707,28.472,28.472,0,0,0-3.012-.2,10.07,10.07,0,0,0-4.158.807,8.053,8.053,0,0,0-3.012,2.306,10.269,10.269,0,0,0-1.834,3.635,17.248,17.248,0,0,0-.623,4.83,9.433,9.433,0,0,0,.387,2.777,5.316,5.316,0,0,0,1.262,2.171,5.837,5.837,0,0,0,2.289,1.413,10.494,10.494,0,0,0,3.5.506,27.3,27.3,0,0,0,3.332-.236q.463-.058.928-.142h2.867a1.216,1.216,0,0,0,.623-.118.825.825,0,0,0,.252-.588l-.017-.033a.585.585,0,0,0,.023-.111.618.618,0,0,0-.366-.563c.029-.241.059-.477.088-.717Zm-7.668,5.028a4.585,4.585,0,0,1-1.633-.253,2.75,2.75,0,0,1-1.06-.691,2.481,2.481,0,0,1-.572-1.026,4.671,4.671,0,0,1-.169-1.3,12.264,12.264,0,0,1,.421-3.18,6.854,6.854,0,0,1,1.01-2.172,3.989,3.989,0,0,1,1.4-1.228,3.645,3.645,0,0,1,1.65-.386c.156,0,.348.005.572.016s.46.028.707.05.487.051.723.084.454.074.656.118q-.269,1.515-.42,2.592t-.3,2.086q-.151,1.01-.3,2.138t-.353,2.743a10.062,10.062,0,0,1-1.179.287A6.37,6.37,0,0,1,438.927,137.17Z" transform="translate(-223.464 -18.178)"/><path class="a" d="M283.75,124.511q.1-.64-.572-.64h-3.365a.923.923,0,0,0-.606.134.972.972,0,0,0-.2.505l-1.819,13.26q-.706.1-1.329.135t-.959.034a5.3,5.3,0,0,1-1.835-.253,1.785,1.785,0,0,1-.959-.792,2.874,2.874,0,0,1-.319-1.363,12.533,12.533,0,0,1,.151-2l1.245-9.02q.1-.64-.572-.64h-3.4c-.314,0-.51.046-.589.134a1.1,1.1,0,0,0-.185.505l-1.312,9.121a13.555,13.555,0,0,0-.1,3.887,4.511,4.511,0,0,0,3.568,4.022,15.175,15.175,0,0,0,3.972.438q.47,0,1.127-.017t1.346-.067q.69-.051,1.3-.119t1.01-.134c.092-.021.17-.05.256-.075h1.475a1.218,1.218,0,0,0,.623-.118.832.832,0,0,0,.252-.588l-.017-.033a.584.584,0,0,0,.022-.111.619.619,0,0,0-.37-.566l.318-2.481Z" transform="translate(-118.097 -18.847)"/></g></g></svg>