<svg xmlns="http://www.w3.org/2000/svg" width="60" height="55.99" viewBox="0 0 60 55.99"><defs><style>.a{fill:#208de0;}</style></defs><g transform="translate(-20 -22.005)"><path class="a" d="M46.027,45.379a1.5,1.5,0,1,0,0,3.007h7.946a1.5,1.5,0,1,0,0-3.007H51.5V43.264h8.362a3.547,3.547,0,0,0,3.545-3.545V25.55A3.547,3.547,0,0,0,59.866,22H40.134a3.547,3.547,0,0,0-3.545,3.545V39.731a3.547,3.547,0,0,0,3.545,3.545H48.5v2.115H46.027Zm-6.443-5.648V25.55a.548.548,0,0,1,.55-.55H59.866a.548.548,0,0,1,.55.55V39.731a.548.548,0,0,1-.55.55H40.134A.564.564,0,0,1,39.584,39.731Z"/><path class="a" d="M38.875,76.491a1.5,1.5,0,0,0-1.5-1.5H34.9V72.873h8.374a3.548,3.548,0,0,0,3.546-3.545V55.159a3.548,3.548,0,0,0-3.546-3.545H23.545A3.547,3.547,0,0,0,20,55.159V69.328a3.547,3.547,0,0,0,3.545,3.545h8.362v2.115H29.438a1.5,1.5,0,1,0,0,3.007h7.946A1.507,1.507,0,0,0,38.875,76.491ZM23,69.34V55.159a.548.548,0,0,1,.55-.55H43.276a.547.547,0,0,1,.55.55V69.328a.548.548,0,0,1-.55.55H23.545A.546.546,0,0,1,23,69.34Z"/><path class="a" d="M76.455,72.873A3.547,3.547,0,0,0,80,69.328V55.159a3.547,3.547,0,0,0-3.545-3.545H56.724a3.548,3.548,0,0,0-3.546,3.545V69.328a3.548,3.548,0,0,0,3.546,3.545h8.362v2.115h-2.47a1.5,1.5,0,1,0,0,3.007h7.946a1.5,1.5,0,1,0,0-3.007H68.093V72.873ZM56.174,69.34V55.159a.547.547,0,0,1,.55-.55H76.455a.548.548,0,0,1,.55.55V69.328a.548.548,0,0,1-.55.55H56.724A.545.545,0,0,1,56.174,69.34Z"/><path class="a" d="M24.853,29.242a1.5,1.5,0,0,0-1.5,1.5V46.883a1.5,1.5,0,0,0,3.007,0V32.237h6.161a1.5,1.5,0,1,0,0-3.007H24.853Z"/><path class="a" d="M65.978,30.746a1.5,1.5,0,0,0,1.5,1.5h6.173V46.9a1.5,1.5,0,0,0,3.008,0V30.758a1.5,1.5,0,0,0-1.5-1.5H67.482A1.485,1.485,0,0,0,65.978,30.746Z"/></g></svg>