<svg xmlns="http://www.w3.org/2000/svg" xmlns:xlink="http://www.w3.org/1999/xlink" width="48" height="48" viewBox="0 0 48 48"><defs><style>.a{fill:#5db6f9;}.b{clip-path:url(#a);}</style><clipPath id="a"><rect class="a" width="48" height="48" transform="translate(607 3726)"/></clipPath></defs><g class="b" transform="translate(-607 -3726)"><g transform="translate(607 3726)"><path class="a" d="M4.5,40.5A4.5,4.5,0,0,1,0,36V12A4.5,4.5,0,0,1,1.1,9.064a1.208,1.208,0,0,1,.1-.112A4.511,4.511,0,0,1,4.5,7.5h39a4.506,4.506,0,0,1,3.3,1.454,1.383,1.383,0,0,1,.1.114A4.482,4.482,0,0,1,48,12V36a4.5,4.5,0,0,1-4.5,4.5ZM3,36a1.5,1.5,0,0,0,1.5,1.5h39A1.5,1.5,0,0,0,45,36V12.374L33.768,20.12l6.25,5.778a1.5,1.5,0,0,1-2.036,2.2l-6.746-6.236-3.65,2.518a6.338,6.338,0,0,1-7.172,0l-3.65-2.516L10.018,28.1A1.5,1.5,0,0,1,7.98,25.9l6.25-5.778L3,12.374ZM22.118,21.914a3.334,3.334,0,0,0,3.764,0L42.434,10.5H5.566Z"/></g></g></svg>