<svg xmlns="http://www.w3.org/2000/svg" xmlns:xlink="http://www.w3.org/1999/xlink" width="48" height="48" viewBox="0 0 48 48"><defs><style>.a{fill:#ececec;}.b{clip-path:url(#a);}.c{fill:#5db6f9;}</style><clipPath id="a"><rect class="a" width="48" height="48" transform="translate(939 3726)"/></clipPath></defs><g class="b" transform="translate(-939 -3726)"><g transform="translate(939.027 3725.951)"><path class="c" d="M23.978,48.044a24.163,24.163,0,0,1-14.4-4.8,24,24,0,0,1-4.8-33.6,24,24,0,0,1,38.4,28.806,1.506,1.506,0,0,1-1.2.6h0a1.5,1.5,0,0,1-1.2-2.4,21.024,21.024,0,0,0-4.2-29.4A21,21,0,0,0,3.186,27.014a20.865,20.865,0,0,0,8.188,13.832,21.138,21.138,0,0,0,12.6,4.2c4.354,0,7.5-1.094,8.868-3.08a5.215,5.215,0,0,0,.574-4.212,7.687,7.687,0,0,1-1.676.186,7.959,7.959,0,0,1-4.152-1.176,1.231,1.231,0,0,1-.174-.1A59.5,59.5,0,0,1,11.35,20.606a1.727,1.727,0,0,1-.1-.178,7.927,7.927,0,0,1,1.166-9.766l.908-.908a3.66,3.66,0,0,1,5.178.01l3.8,3.8a3.659,3.659,0,0,1,0,5.164.653.653,0,0,0,0,.922l6.084,6.086a.657.657,0,0,0,.924,0,3.655,3.655,0,0,1,5.16,0l3.8,3.8a3.656,3.656,0,0,1,0,5.162l-.906.9a7.87,7.87,0,0,1-1.144.944,8.273,8.273,0,0,1-.9,7.124c-1.97,2.866-5.89,4.38-11.338,4.38h0Zm5.094-13.9a4.921,4.921,0,0,0,6.166-.674l.9-.9a.652.652,0,0,0,0-.92l-3.8-3.8a.646.646,0,0,0-.46-.188.656.656,0,0,0-.462.19,3.66,3.66,0,0,1-5.164,0L20.17,21.768a3.656,3.656,0,0,1,0-5.162.653.653,0,0,0,0-.922l-3.8-3.8a.629.629,0,0,0-.464-.2l0-.75v.75a.643.643,0,0,0-.46.19l-.908.908a4.927,4.927,0,0,0-.674,6.162c.02.032.038.064.056.1A56.548,56.548,0,0,0,28.972,34.09C29.006,34.108,29.04,34.128,29.072,34.148Z"/></g></g></svg>